<?xml version="1.0" standalone="no"?>
<!DOCTYPE svg PUBLIC "-//W3C//DTD SVG 20010904//EN"
 "http://www.w3.org/TR/2001/REC-SVG-20010904/DTD/svg10.dtd">
<svg version="1.0" xmlns="http://www.w3.org/2000/svg"
 width="700.000000pt" height="700.000000pt" viewBox="0 0 700.000000 700.000000"
 preserveAspectRatio="xMidYMid meet">
<metadata>
Created by potrace 1.11, written by Peter Selinger 2001-2013
</metadata>
<g transform="translate(0.000000,700.000000) scale(0.100000,-0.100000)"
fill="#000000" stroke="none">
<path d="M985 6118 c-378 -35 -728 -286 -886 -633 -32 -72 -75 -210 -86 -283
-14 -87 -8 -302 11 -392 89 -438 470 -802 896 -856 106 -14 40 -19 -243 -19
-328 0 -359 -4 -453 -56 -63 -35 -134 -107 -168 -169 -56 -104 -55 -59 -55
-1295 0 -694 4 -1160 10 -1190 30 -158 181 -310 339 -341 48 -10 4439 -11
4519 -2 156 18 303 137 356 288 23 64 23 77 24 457 l1 342 518 -324 c284 -178
674 -422 866 -542 192 -120 353 -220 358 -221 4 -2 8 683 8 1522 0 839 -3
1526 -7 1526 -5 0 -139 -82 -253 -155 -19 -13 -163 -103 -320 -200 -157 -98
-305 -190 -330 -206 -25 -16 -110 -69 -190 -118 -80 -50 -150 -95 -157 -101
-7 -5 -14 -10 -16 -10 -4 0 -258 -158 -307 -190 -35 -24 -162 -100 -166 -100
-2 0 -4 152 -4 339 0 186 -5 363 -10 392 -22 120 -110 241 -216 298 -106 57
-88 55 -647 57 -285 1 -521 4 -524 8 -3 3 5 6 18 7 77 2 233 51 342 105 309
157 536 469 585 803 9 59 9 294 1 346 -38 233 -160 461 -335 624 -273 255
-654 353 -1019 260 -84 -22 -105 -30 -222 -85 -290 -138 -532 -464 -578 -779
-4 -22 -9 -48 -11 -58 -12 -38 -4 -256 10 -332 70 -359 302 -654 632 -803 74
-34 247 -82 292 -82 14 0 22 -3 19 -6 -4 -4 -540 -7 -1191 -8 -652 -1 -1182 2
-1178 6 4 4 28 10 52 12 62 7 211 51 279 83 223 105 400 274 514 492 42 80 90
212 102 281 28 157 28 289 0 440 -57 308 -286 609 -575 755 -90 46 -215 89
-290 100 -137 20 -209 23 -315 13z m3380 -3057 c7 -1 10 -222 9 -648 -1 -357
-2 -651 -3 -656 0 -4 -787 -6 -1748 -5 l-1748 3 -1 650 c0 358 1 652 2 655 1
4 3425 4 3489 1z"/>
</g>
</svg>
